<svg width="22" height="20" viewBox="0 0 22 20" fill="none" xmlns="http://www.w3.org/2000/svg">
<path fill-rule="evenodd" clip-rule="evenodd" d="M15.7576 12.8985L21.6753 18.2783C21.8833 18.4676 22.0001 18.7242 22 18.9917C21.9999 19.2592 21.8829 19.5157 21.6748 19.7048C21.4666 19.8939 21.1844 20.0001 20.8901 20C20.5958 19.9999 20.3137 19.8935 20.1057 19.7043L14.188 14.3244C12.4189 15.5701 10.1943 16.1563 7.96679 15.9638C5.73922 15.7712 3.676 14.8145 2.19685 13.2881C0.717691 11.7617 -0.0662885 9.78035 0.00439575 7.74712C0.07508 5.7139 0.995118 3.78152 2.57734 2.3431C4.15957 0.904675 6.28513 0.0682562 8.52162 0.00399624C10.7581 -0.0602638 12.9375 0.652463 14.6165 1.99718C16.2955 3.3419 17.3479 5.21761 17.5597 7.24271C17.7715 9.26782 17.1267 11.2902 15.7565 12.8985H15.7576ZM8.80041 13.9994C10.5508 13.9994 12.2294 13.3673 13.4671 12.2421C14.7048 11.1169 15.4001 9.59084 15.4001 7.99957C15.4001 6.40831 14.7048 4.88222 13.4671 3.75702C12.2294 2.63183 10.5508 1.9997 8.80041 1.9997C7.05006 1.9997 5.3714 2.63183 4.13372 3.75702C2.89604 4.88222 2.20072 6.40831 2.20072 7.99957C2.20072 9.59084 2.89604 11.1169 4.13372 12.2421C5.3714 13.3673 7.05006 13.9994 8.80041 13.9994Z" fill="#442414"/>
</svg>
