<svg width="1440" height="67" viewBox="0 0 1440 67" fill="none" xmlns="http://www.w3.org/2000/svg">
<rect width="1440" height="67" fill="#E1CBD2"/>
<g clip-path="url(#clip0_99_8302)">
<path d="M798.84 17.1554C791.299 17.3235 783.758 17.6597 776.057 17.7438C765.628 17.9119 755.039 17.9959 744.61 17.8278C727.764 17.6597 710.917 16.7351 694.071 15.8946C681.396 15.2221 668.721 14.7178 656.046 14.4656C647.222 14.3816 638.558 14.4656 629.894 15.054C622.033 15.6424 614.332 16.567 606.951 18.164C605.989 18.3322 605.026 18.5843 603.742 18.9205C604.865 19.1727 605.507 19.3408 606.309 19.5089C611.764 20.8538 616.899 22.2827 621.391 24.3841C623.798 25.4768 625.883 26.7377 627.167 28.3347C629.734 31.1085 628.932 34.3026 624.76 36.5721C623.156 37.4967 621.07 38.2532 618.984 38.8416C613.85 40.3546 608.074 40.8589 602.138 40.5227C597.164 40.2705 592.511 39.3459 588.661 37.6648C584.489 35.8156 582.404 33.4621 582.885 30.6042C583.206 28.9231 584.329 27.4101 585.933 26.0652C588.821 23.5436 592.832 21.5262 597.646 19.9292C598.287 19.677 599.09 19.4249 600.052 19.0886C599.09 18.8365 598.448 18.6684 597.806 18.5843C591.228 17.5757 584.81 16.3989 578.072 15.4743C561.225 13.2889 544.058 12.028 526.73 11.3556C504.589 10.515 482.448 10.3469 460.307 11.7759C446.67 12.7005 433.193 13.9613 420.037 16.1467C409.126 17.9119 398.537 20.1814 388.75 23.2914C376.717 26.9898 366.93 31.9491 357.946 37.4126C352.811 40.5227 347.838 43.6327 342.704 46.7427C334.682 51.4498 325.376 55.0642 314.305 57.5018C307.406 59.0148 300.026 60.0234 292.646 60.7799C280.452 61.9567 267.938 62.461 255.584 62.6291C245.636 62.7972 235.689 62.7972 225.742 62.6291C213.227 62.377 200.713 61.9567 188.359 61.5364C183.866 61.3683 179.374 61.2002 174.882 60.948C166.699 60.5278 158.516 60.1915 150.334 59.7713C144.398 59.5191 138.461 59.1829 132.685 58.8467C123.701 58.3423 114.876 57.838 105.892 57.4177C97.0673 56.9134 88.7243 56.5772 80.2209 56.241C64.9789 55.5685 49.5765 55.2323 34.3345 55.9047C28.2378 56.241 22.3014 56.6612 16.6859 58.0061C8.8243 59.7713 2.56707 62.377 0.481325 67C-0.160442 66.2435 -0.160442 65.9073 0.481325 64.9827C1.60442 63.4697 3.52972 62.1248 5.61546 61.0321C10.1078 58.6786 15.7233 57.2496 21.8201 56.4091C31.7675 55.0642 42.0357 54.812 52.304 54.8961C69.9526 55.0642 87.6012 55.7366 105.089 56.7453C115.518 57.3337 125.947 57.838 136.376 58.4264C147.606 59.0148 158.837 59.6032 170.068 60.1075C183.224 60.6959 196.381 61.1161 209.697 61.5364C229.753 62.1248 249.808 62.377 269.863 61.5364C277.885 61.2002 285.747 60.6959 293.769 59.9394C314.145 58.0061 330.991 53.0469 344.308 44.6414C348.319 42.0357 352.491 39.5981 356.662 36.9924C370.781 27.9985 388.109 21.4422 408.966 17.4076C421.32 14.97 433.995 13.2889 446.991 12.1121C458.222 11.1034 469.453 10.515 480.844 10.2629C487.262 10.0107 493.84 10.0948 500.578 10.0107C511.328 9.92666 521.917 10.3469 532.667 10.9353C542.775 11.5237 552.882 12.2802 562.99 13.1207C571.975 13.8772 580.639 14.97 589.303 16.3148C593.474 16.9873 597.646 17.7438 601.817 18.5003C602.138 18.4162 602.619 18.3322 602.94 18.2481C608.716 16.8192 614.973 15.8105 621.231 15.054C633.103 13.7091 644.976 13.457 657.009 13.7091C664.871 13.8772 672.572 14.1294 680.434 14.4656C686.53 14.7178 692.627 15.054 698.724 15.3902C706.906 15.8105 714.929 16.2308 723.111 16.567C738.674 17.0713 754.237 17.4075 769.96 17.1554C775.896 17.0713 781.993 16.9032 787.93 16.7351C791.62 16.6511 795.31 16.567 799 16.3989C798.84 16.7351 798.84 16.9873 798.84 17.1554ZM585.933 27.4101C584.489 28.839 583.687 30.4361 584.008 32.1172C584.489 34.6388 587.217 36.5721 591.228 37.917C597.485 40.0183 604.224 40.5227 611.283 39.6821C614.492 39.2618 617.54 38.6735 620.428 37.6648C627.809 34.975 629.092 30.7723 623.477 27.0739C622.354 26.4014 621.231 25.729 619.947 25.0566C615.615 22.9552 607.593 20.6016 601.496 19.593C595.079 21.3581 589.463 23.7957 585.933 27.4101Z" fill="url(#paint0_linear_99_8302)"/>
<g clip-path="url(#clip1_99_8302)">
<path d="M334 17.146C329.969 17.3141 325.939 17.6504 321.822 17.7345C316.248 17.9026 310.588 17.9867 305.013 17.8186C296.008 17.6504 287.003 16.7256 277.999 15.8849C271.224 15.2124 264.449 14.7079 257.673 14.4557C252.957 14.3717 248.326 14.4557 243.695 15.0442C239.492 15.6327 235.376 16.5575 231.431 18.1548C230.916 18.323 230.402 18.5752 229.716 18.9115C230.316 19.1637 230.659 19.3318 231.088 19.5C234.004 20.8451 236.748 22.2743 239.149 24.3761C240.436 25.469 241.551 26.7301 242.237 28.3274C243.609 31.1017 243.18 34.2964 240.95 36.5663C240.093 37.4911 238.978 38.2478 237.863 38.8363C235.119 40.3495 232.031 40.854 228.858 40.5177C226.199 40.2655 223.712 39.3407 221.654 37.6593C219.424 35.8097 218.31 33.4557 218.567 30.5973C218.738 28.9159 219.339 27.4026 220.196 26.0575C221.74 23.5354 223.884 21.5177 226.457 19.9203C226.8 19.6681 227.229 19.4159 227.743 19.0796C227.229 18.8274 226.886 18.6593 226.543 18.5752C223.026 17.5663 219.596 16.3894 215.994 15.4646C206.989 13.2787 197.813 12.0177 188.551 11.3451C176.716 10.5044 164.881 10.3363 153.046 11.7655C145.756 12.6902 138.553 13.9513 131.52 16.1371C125.688 17.9026 120.028 20.1725 114.797 23.2832C108.365 26.9823 103.134 31.9424 98.331 37.407C95.5867 40.5177 92.9281 43.6283 90.1838 46.7389C85.8958 51.4469 80.9217 55.0619 75.0042 57.5C71.3165 59.0132 67.3716 60.0221 63.4266 60.7787C56.9088 61.9557 50.2195 62.4601 43.616 62.6283C38.2989 62.7964 32.9817 62.7964 27.6646 62.6283C20.9753 62.3761 14.286 61.9557 7.68248 61.5354C5.28119 61.3672 2.8799 61.1991 0.478618 60.9469C-3.89515 60.5265 -8.26893 60.1902 -12.6427 59.7699C-15.8158 59.5177 -18.989 59.1814 -22.0763 58.8451C-26.8789 58.3407 -31.5957 57.8363 -36.3983 57.4159C-41.1151 56.9115 -45.5746 56.5752 -50.1199 56.2389C-58.2671 55.5663 -66.5001 55.2301 -74.6473 55.9026C-77.9062 56.2389 -81.0793 56.6593 -84.0809 58.0044C-88.2832 59.7699 -91.6278 62.3761 -92.7427 67C-93.0858 66.2433 -93.0858 65.907 -92.7427 64.9823C-92.1424 63.469 -91.1133 62.1239 -89.9984 61.0309C-87.5971 58.677 -84.5955 57.2478 -81.3366 56.407C-76.0195 55.0619 -70.5308 54.8097 -65.0422 54.8938C-55.6086 55.0619 -46.1749 55.7345 -36.8271 56.7433C-31.2527 57.3318 -25.6782 57.8363 -20.1038 58.4247C-14.1006 59.0132 -8.0974 59.6017 -2.09419 60.1062C4.93815 60.6947 11.9705 61.115 19.0886 61.5354C29.8086 62.1239 40.5286 62.3761 51.2487 61.5354C55.5367 61.1991 59.7389 60.6947 64.0269 59.938C74.9185 58.0044 83.9233 53.0442 91.0414 44.6371C93.1854 42.0309 95.4152 39.5929 97.6449 36.9867C105.192 27.9911 114.454 21.4336 125.603 17.3982C132.206 14.9601 138.981 13.2787 145.928 12.1017C151.931 11.0929 157.934 10.5044 164.023 10.2522C167.454 9.99997 170.97 10.084 174.572 9.99997C180.318 9.9159 185.978 10.3363 191.724 10.9247C197.127 11.5132 202.53 12.2699 207.933 13.1106C212.735 13.8672 217.366 14.9601 221.997 16.3053C224.227 16.9778 226.457 17.7345 228.687 18.4911C228.858 18.4071 229.115 18.323 229.287 18.2389C232.374 16.8097 235.719 15.8009 239.064 15.0442C245.41 13.6991 251.756 13.4469 258.188 13.6991C262.39 13.8672 266.507 14.1194 270.709 14.4557C273.968 14.7079 277.227 15.0442 280.486 15.3805C284.859 15.8009 289.147 16.2212 293.521 16.5575C301.84 17.0619 310.159 17.3982 318.563 17.146C321.736 17.0619 324.995 16.8938 328.168 16.7256C330.141 16.6416 332.113 16.5575 334.086 16.3894C334 16.7256 334 16.9778 334 17.146ZM220.196 27.4026C219.424 28.8318 218.996 30.4292 219.167 32.1106C219.424 34.6327 220.882 36.5663 223.026 37.9115C226.371 40.0132 229.973 40.5177 233.746 39.677C235.462 39.2566 237.091 38.6681 238.635 37.6593C242.58 34.969 243.266 30.7655 240.264 27.0663C239.664 26.3938 239.063 25.7212 238.377 25.0486C236.062 22.9469 231.774 20.5929 228.515 19.584C225.085 21.3495 222.083 23.7876 220.196 27.4026Z" fill="url(#paint1_linear_99_8302)"/>
</g>
</g>
<defs>
<linearGradient id="paint0_linear_99_8302" x1="795.977" y1="50.8928" x2="6.85025" y2="-15.449" gradientUnits="userSpaceOnUse">
<stop stop-color="#E7C16D"/>
<stop offset="0.2398" stop-color="#B8822C"/>
<stop offset="0.5153" stop-color="#7E5923"/>
<stop offset="0.8571" stop-color="#E7C16D"/>
</linearGradient>
<linearGradient id="paint1_linear_99_8302" x1="332.47" y1="50.8898" x2="-91.4638" y2="31.8428" gradientUnits="userSpaceOnUse">
<stop stop-color="#E7C16D"/>
<stop offset="0.2398" stop-color="#B8822C"/>
<stop offset="0.5153" stop-color="#7E5923"/>
<stop offset="0.8571" stop-color="#E7C16D"/>
</linearGradient>
<clipPath id="clip0_99_8302">
<rect width="959" height="57" fill="white" transform="translate(0 10)"/>
</clipPath>
<clipPath id="clip1_99_8302">
<rect width="427" height="57" fill="white" transform="translate(-93 10)"/>
</clipPath>
</defs>
</svg>
