<svg width="27" height="26" viewBox="0 0 27 26" fill="none" xmlns="http://www.w3.org/2000/svg">
<path d="M24.5938 6.12915H2.02582C1.45927 6.12915 1 6.58842 1 7.15497V23.568C1 24.1346 1.45927 24.5938 2.02582 24.5938H24.5938C25.1603 24.5938 25.6196 24.1346 25.6196 23.568V7.15497C25.6196 6.58842 25.1603 6.12915 24.5938 6.12915Z" stroke="#442414" stroke-width="2" stroke-linecap="round" stroke-linejoin="round"/>
<path d="M8.18066 10.2323V6.12908C8.18066 4.76876 8.72105 3.46416 9.68294 2.50227C10.6448 1.54038 11.9494 1 13.3097 1C14.6701 1 15.9747 1.54038 16.9365 2.50227C17.8984 3.46416 18.4388 4.76876 18.4388 6.12908V10.2323" stroke="#442414" stroke-width="2" stroke-linecap="round" stroke-linejoin="round"/>
</svg>
